<svg xmlns="http://www.w3.org/2000/svg" xmlns:xlink="http://www.w3.org/1999/xlink" contentStyleType="text/css" height="2072px" preserveAspectRatio="none" style="width:1704px;height:2072px;background:#FFFFFF;" version="1.1" viewBox="0 0 1704 2072" width="1704px" zoomAndPan="magnify"><defs/><g><text fill="#000000" font-family="sans-serif" font-size="56" font-weight="bold" lengthAdjust="spacing" textLength="736" x="457" y="99.8637">2.4. Fachklassendiagramm</text><!--class User--><g id="elem_User"><rect codeLine="4" fill="#F1F1F1" height="725.9017" id="User" rx="10" ry="10" style="stroke:#181818;stroke-width:2.0;" width="520" x="28" y="188.2717"/><ellipse cx="209" cy="252.2717" fill="#ADD1B2" rx="44" ry="44" style="stroke:#181818;stroke-width:4.0;"/><path d="M206.875,279.9592 Q199.875,279.9592 195.3125,277.0217 Q190.8125,274.0217 188.5625,268.6467 Q186.375,263.2092 186.375,256.0217 Q186.375,247.8967 189,242.0842 Q191.625,236.2717 196.75,233.1467 Q201.875,230.0217 209.375,230.0217 Q212.9375,230.0217 215.625,230.7717 Q218.3125,231.4592 221.0625,232.8342 L217.8125,240.8967 Q215.3125,239.6467 213.125,239.1467 Q211,238.6467 209.0625,238.6467 Q204.375,238.6467 201.5625,240.7717 Q198.75,242.8967 197.5625,246.7092 Q196.375,250.5217 196.375,255.5842 Q196.375,263.6467 199.25,267.5217 Q202.125,271.3342 208.5,271.3342 Q210.875,271.3342 213.375,270.7092 Q215.875,270.0842 219.1875,268.5842 L219.1875,277.4592 Q216.25,278.7092 213.0625,279.3342 Q209.9375,279.9592 206.875,279.9592 Z " fill="#000000"/><text fill="#000000" font-family="sans-serif" font-size="56" lengthAdjust="spacing" textLength="124" x="291" y="273.9996">User</text><line style="stroke:#181818;stroke-width:2.0;" x1="32" x2="544" y1="316.2717" y2="316.2717"/><text fill="#000000" font-family="sans-serif" font-size="56" lengthAdjust="spacing" textLength="140" x="52" y="392.1354">int id</text><text fill="#000000" font-family="sans-serif" font-size="56" lengthAdjust="spacing" textLength="472" x="52" y="468.4071">boolean is_admin</text><text fill="#000000" font-family="sans-serif" font-size="56" lengthAdjust="spacing" textLength="464" x="52" y="544.6787">String first_name</text><text fill="#000000" font-family="sans-serif" font-size="56" lengthAdjust="spacing" textLength="452" x="52" y="620.9504">String last_name</text><text fill="#000000" font-family="sans-serif" font-size="56" lengthAdjust="spacing" textLength="328" x="52" y="697.2221">String email</text><text fill="#000000" font-family="sans-serif" font-size="56" lengthAdjust="spacing" textLength="440" x="52" y="773.4937">String password</text><text fill="#000000" font-family="sans-serif" font-size="56" lengthAdjust="spacing" textLength="420" x="52" y="849.7654">Date created_at</text><line style="stroke:#181818;stroke-width:2.0;" x1="32" x2="544" y1="882.1733" y2="882.1733"/></g><!--class Room--><g id="elem_Room"><rect codeLine="14" fill="#F1F1F1" height="344.5433" id="Room" rx="10" ry="10" style="stroke:#181818;stroke-width:2.0;" width="380" x="690" y="378.9517"/><ellipse cx="795" cy="442.9517" fill="#ADD1B2" rx="44" ry="44" style="stroke:#181818;stroke-width:4.0;"/><path d="M792.875,470.6392 Q785.875,470.6392 781.3125,467.7017 Q776.8125,464.7017 774.5625,459.3267 Q772.375,453.8892 772.375,446.7017 Q772.375,438.5767 775,432.7642 Q777.625,426.9517 782.75,423.8267 Q787.875,420.7017 795.375,420.7017 Q798.9375,420.7017 801.625,421.4517 Q804.3125,422.1392 807.0625,423.5142 L803.8125,431.5767 Q801.3125,430.3267 799.125,429.8267 Q797,429.3267 795.0625,429.3267 Q790.375,429.3267 787.5625,431.4517 Q784.75,433.5767 783.5625,437.3892 Q782.375,441.2017 782.375,446.2642 Q782.375,454.3267 785.25,458.2017 Q788.125,462.0142 794.5,462.0142 Q796.875,462.0142 799.375,461.3892 Q801.875,460.7642 805.1875,459.2642 L805.1875,468.1392 Q802.25,469.3892 799.0625,470.0142 Q795.9375,470.6392 792.875,470.6392 Z " fill="#000000"/><text fill="#000000" font-family="sans-serif" font-size="56" lengthAdjust="spacing" textLength="152" x="861" y="464.6796">Room</text><line style="stroke:#181818;stroke-width:2.0;" x1="694" x2="1066" y1="506.9517" y2="506.9517"/><text fill="#000000" font-family="sans-serif" font-size="56" lengthAdjust="spacing" textLength="140" x="714" y="582.8154">int id</text><text fill="#000000" font-family="sans-serif" font-size="56" lengthAdjust="spacing" textLength="332" x="714" y="659.0871">String name</text><line style="stroke:#181818;stroke-width:2.0;" x1="694" x2="1066" y1="691.495" y2="691.495"/></g><!--class Booking--><g id="elem_Booking"><rect codeLine="19" fill="#F1F1F1" height="649.63" id="Booking" rx="10" ry="10" style="stroke:#181818;stroke-width:2.0;" width="748" x="210" y="1398.1517"/><ellipse cx="459" cy="1462.1517" fill="#ADD1B2" rx="44" ry="44" style="stroke:#181818;stroke-width:4.0;"/><path d="M456.875,1489.8392 Q449.875,1489.8392 445.3125,1486.9017 Q440.8125,1483.9017 438.5625,1478.5267 Q436.375,1473.0892 436.375,1465.9017 Q436.375,1457.7767 439,1451.9642 Q441.625,1446.1517 446.75,1443.0267 Q451.875,1439.9017 459.375,1439.9017 Q462.9375,1439.9017 465.625,1440.6517 Q468.3125,1441.3392 471.0625,1442.7142 L467.8125,1450.7767 Q465.3125,1449.5267 463.125,1449.0267 Q461,1448.5267 459.0625,1448.5267 Q454.375,1448.5267 451.5625,1450.6517 Q448.75,1452.7767 447.5625,1456.5892 Q446.375,1460.4017 446.375,1465.4642 Q446.375,1473.5267 449.25,1477.4017 Q452.125,1481.2142 458.5,1481.2142 Q460.875,1481.2142 463.375,1480.5892 Q465.875,1479.9642 469.1875,1478.4642 L469.1875,1487.3392 Q466.25,1488.5892 463.0625,1489.2142 Q459.9375,1489.8392 456.875,1489.8392 Z " fill="#000000"/><text fill="#000000" font-family="sans-serif" font-size="56" lengthAdjust="spacing" textLength="216" x="541" y="1483.8796">Booking</text><line style="stroke:#181818;stroke-width:2.0;" x1="214" x2="954" y1="1526.1517" y2="1526.1517"/><text fill="#000000" font-family="sans-serif" font-size="56" lengthAdjust="spacing" textLength="140" x="234" y="1602.0154">int id</text><text fill="#000000" font-family="sans-serif" font-size="56" lengthAdjust="spacing" textLength="364" x="234" y="1678.2871">String reason</text><text fill="#000000" font-family="sans-serif" font-size="56" lengthAdjust="spacing" textLength="700" x="234" y="1754.5587">BookingDuration duration</text><text fill="#000000" font-family="sans-serif" font-size="56" lengthAdjust="spacing" textLength="556" x="234" y="1830.8304">boolean is_approved</text><line style="stroke:#181818;stroke-width:4.0;" x1="214" x2="954" y1="1863.2383" y2="1863.2383"/><text fill="#000000" font-family="sans-serif" font-size="56" lengthAdjust="spacing" textLength="376" x="234" y="1939.1021">int fk_room_id</text><text fill="#000000" font-family="sans-serif" font-size="56" lengthAdjust="spacing" textLength="356" x="234" y="2015.3737">int fk_user_id</text></g><!--class BookingDuration--><g id="elem_BookingDuration"><rect codeLine="29" fill="#F1F1F1" height="420.815" id="BookingDuration" rx="10" ry="10" style="stroke:#181818;stroke-width:2.0;" width="580" x="1098" y="1512.5517"/><ellipse cx="1158" cy="1576.5517" fill="#EB937F" rx="44" ry="44" style="stroke:#181818;stroke-width:4.0;"/><path d="M1143.4375,1602.5517 L1143.4375,1553.9892 L1174.0625,1553.9892 L1174.0625,1562.4892 L1152.9375,1562.4892 L1152.9375,1573.1142 L1173,1573.1142 L1173,1581.6142 L1152.9375,1581.6142 L1152.9375,1594.0517 L1174.0625,1594.0517 L1174.0625,1602.5517 L1143.4375,1602.5517 Z " fill="#000000"/><text fill="#000000" font-family="sans-serif" font-size="56" lengthAdjust="spacing" textLength="452" x="1214" y="1598.2796">BookingDuration</text><line style="stroke:#181818;stroke-width:2.0;" x1="1102" x2="1674" y1="1640.5517" y2="1640.5517"/><text fill="#000000" font-family="sans-serif" font-size="56" lengthAdjust="spacing" textLength="232" x="1122" y="1716.4154">Morning</text><text fill="#000000" font-family="sans-serif" font-size="56" lengthAdjust="spacing" textLength="268" x="1122" y="1792.6871">Afternoon</text><text fill="#000000" font-family="sans-serif" font-size="56" lengthAdjust="spacing" textLength="100" x="1122" y="1868.9587">Day</text><line style="stroke:#181818;stroke-width:2.0;" x1="1102" x2="1674" y1="1901.3667" y2="1901.3667"/></g><!--link User to Booking--><g id="link_User_Booking"><path codeLine="34" d="M379.64,915.4717 C418.84,1069.6717 464.28,1248.2717 502.32,1397.9117 " fill="none" id="User-Booking" style="stroke:#181818;stroke-width:4.0;"/><text fill="#000000" font-family="sans-serif" font-size="52" lengthAdjust="spacing" textLength="28" x="357.5843" y="1001.6588">1</text><text fill="#000000" font-family="sans-serif" font-size="52" lengthAdjust="spacing" textLength="80" x="410.7224" y="1351.4119">0..*</text></g><!--link Room to Booking--><g id="link_Room_Booking"><path codeLine="35" d="M836.96,724.4317 C792.32,899.9917 721.4,1178.8317 666,1396.6317 " fill="none" id="Room-Booking" style="stroke:#181818;stroke-width:4.0;"/><text fill="#000000" font-family="sans-serif" font-size="52" lengthAdjust="spacing" textLength="28" x="800.5823" y="810.6608">1</text><text fill="#000000" font-family="sans-serif" font-size="52" lengthAdjust="spacing" textLength="80" x="589.8719" y="1351.1315">0..*</text></g><!--link Booking to BookingDuration--><g id="link_Booking_BookingDuration"><path codeLine="36" d="M959.32,1722.9917 C1005.08,1722.9917 1050.84,1722.9917 1096.64,1722.9917 " fill="none" id="Booking-BookingDuration" style="stroke:#181818;stroke-width:4.0;"/></g><!--SRC=[TP6nReGm38RtF8N5M0d4dJfrQuMwtTBgPkI2kKQG63cXLLNrtUiW42gYKvpVzkS_JhHn83WNzmKyO_FU3nW2-TRYJT0v4nhKzAaiIsEQb8Dh885l0s1z1DjgyCOy47gmeSRMMQ_IQnJhRz1P2R7sw6ZJ5BANoA4TjkkeOpvP4hh2ID08wT7M6CtFwkA5sVrriJGdCi1M-CJS9_seLhc1azsbg9e4esKFxHBi7ZUEmX-K07c-uBg-5hLIpzX5c7H3IL0Fv2Utfvlzj0Uui7XL3ZAFNIJnVDXLuPSnytTafqmjvP2LHN6NhGFDlAH_SkjUyhszNm00]--></g></svg>