<svg xmlns="http://www.w3.org/2000/svg" xmlns:xlink="http://www.w3.org/1999/xlink" contentStyleType="text/css" height="2476px" preserveAspectRatio="none" style="width:1604px;height:2476px;background:#FFFFFF;" version="1.1" viewBox="0 0 1604 2476" width="1604px" zoomAndPan="magnify"><defs/><g><text fill="#000000" font-family="sans-serif" font-size="56" font-weight="bold" lengthAdjust="spacing" textLength="844" x="386" y="119.8637">3.6. Sequenzdiagramm (Login)</text><line style="stroke:#181818;stroke-width:2.0;stroke-dasharray:5.0,5.0;" x1="156" x2="156" y1="496.5433" y2="2142.4321"/><line style="stroke:#181818;stroke-width:2.0;stroke-dasharray:5.0,5.0;" x1="968" x2="968" y1="496.5433" y2="2142.4321"/><line style="stroke:#181818;stroke-width:2.0;stroke-dasharray:5.0,5.0;" x1="1460" x2="1460" y1="496.5433" y2="2142.4321"/><text fill="#000000" font-family="sans-serif" font-size="56" lengthAdjust="spacing" textLength="252" x="20" y="480.1354">Besucher</text><ellipse cx="158" cy="214.2717" fill="#E2E2F0" rx="32" ry="32" style="stroke:#181818;stroke-width:2.0;"/><path d="M158,246.2717 L158,354.2717 M106,278.2717 L210,278.2717 M158,354.2717 L106,414.2717 M158,354.2717 L210,414.2717 " fill="none" style="stroke:#181818;stroke-width:2.0;"/><text fill="#000000" font-family="sans-serif" font-size="56" lengthAdjust="spacing" textLength="252" x="20" y="2198.2959">Besucher</text><ellipse cx="158" cy="2248.7038" fill="#E2E2F0" rx="32" ry="32" style="stroke:#181818;stroke-width:2.0;"/><path d="M158,2280.7038 L158,2388.7038 M106,2312.7038 L210,2312.7038 M158,2388.7038 L106,2448.7038 M158,2388.7038 L210,2448.7038 " fill="none" style="stroke:#181818;stroke-width:2.0;"/><rect fill="#E2E2F0" height="132.2717" style="stroke:#181818;stroke-width:2.0;" width="164" x="896" y="344.2717"/><rect fill="#E2E2F0" height="132.2717" style="stroke:#181818;stroke-width:2.0;" width="164" x="880" y="360.2717"/><text fill="#000000" font-family="sans-serif" font-size="56" lengthAdjust="spacing" textLength="108" x="908" y="448.1354">App</text><rect fill="#E2E2F0" height="132.2717" style="stroke:#181818;stroke-width:2.0;" width="164" x="896" y="2138.4321"/><rect fill="#E2E2F0" height="132.2717" style="stroke:#181818;stroke-width:2.0;" width="164" x="880" y="2154.4321"/><text fill="#000000" font-family="sans-serif" font-size="56" lengthAdjust="spacing" textLength="108" x="908" y="2242.2959">App</text><text fill="#000000" font-family="sans-serif" font-size="56" lengthAdjust="spacing" textLength="252" x="1324" y="480.1354">Database</text><path d="M1390,276.2717 C1390,236.2717 1462,236.2717 1462,236.2717 C1462,236.2717 1534,236.2717 1534,276.2717 L1534,380.2717 C1534,420.2717 1462,420.2717 1462,420.2717 C1462,420.2717 1390,420.2717 1390,380.2717 L1390,276.2717 " fill="#E2E2F0" style="stroke:#181818;stroke-width:6.0;"/><path d="M1390,276.2717 C1390,316.2717 1462,316.2717 1462,316.2717 C1462,316.2717 1534,316.2717 1534,276.2717 " fill="none" style="stroke:#181818;stroke-width:6.0;"/><text fill="#000000" font-family="sans-serif" font-size="56" lengthAdjust="spacing" textLength="252" x="1324" y="2198.2959">Database</text><path d="M1390,2254.7038 C1390,2214.7038 1462,2214.7038 1462,2214.7038 C1462,2214.7038 1534,2214.7038 1534,2254.7038 L1534,2358.7038 C1534,2398.7038 1462,2398.7038 1462,2398.7038 C1462,2398.7038 1390,2398.7038 1390,2358.7038 L1390,2254.7038 " fill="#E2E2F0" style="stroke:#181818;stroke-width:6.0;"/><path d="M1390,2254.7038 C1390,2294.7038 1462,2294.7038 1462,2294.7038 C1462,2294.7038 1534,2294.7038 1534,2254.7038 " fill="none" style="stroke:#181818;stroke-width:6.0;"/><polygon fill="#181818" points="922,615.3674,962,631.3674,922,647.3674,938,631.3674" style="stroke:#181818;stroke-width:4.0;"/><line style="stroke:#181818;stroke-width:4.0;" x1="158" x2="946" y1="631.3674" y2="631.3674"/><text fill="#000000" font-family="sans-serif" font-size="52" lengthAdjust="spacing" textLength="716" x="186" y="608.1314">POST /login {email, password}</text><line style="stroke:#181818;stroke-width:4.0;" x1="970" x2="1138" y1="758.1915" y2="758.1915"/><line style="stroke:#181818;stroke-width:4.0;" x1="1138" x2="1138" y1="758.1915" y2="810.1915"/><line style="stroke:#181818;stroke-width:4.0;" x1="974" x2="1138" y1="810.1915" y2="810.1915"/><polygon fill="#181818" points="1014,794.1915,974,810.1915,1014,826.1915,998,810.1915" style="stroke:#181818;stroke-width:4.0;"/><text fill="#000000" font-family="sans-serif" font-size="52" lengthAdjust="spacing" textLength="316" x="998" y="734.9555">Validate Data</text><polygon fill="#FF0000" points="202,921.0155,162,937.0155,202,953.0155,186,937.0155" style="stroke:#FF0000;stroke-width:4.0;"/><line style="stroke:#FF0000;stroke-width:4.0;" x1="178" x2="966" y1="937.0155" y2="937.0155"/><text fill="#000000" font-family="sans-serif" font-size="52" lengthAdjust="spacing" textLength="576" x="226" y="913.7795">401 (if login data invalid)</text><polygon fill="#181818" points="1414,1047.8396,1454,1063.8396,1414,1079.8396,1430,1063.8396" style="stroke:#181818;stroke-width:4.0;"/><line style="stroke:#181818;stroke-width:4.0;" x1="970" x2="1438" y1="1063.8396" y2="1063.8396"/><text fill="#000000" font-family="sans-serif" font-size="52" lengthAdjust="spacing" textLength="208" x="998" y="1040.6036">find user</text><polygon fill="#181818" points="1014,1174.6637,974,1190.6637,1014,1206.6637,998,1190.6637" style="stroke:#181818;stroke-width:4.0;"/><line style="stroke:#181818;stroke-width:4.0;" x1="990" x2="1458" y1="1190.6637" y2="1190.6637"/><text fill="#000000" font-family="sans-serif" font-size="52" lengthAdjust="spacing" textLength="272" x="1038" y="1167.4277">user / none</text><polygon fill="#FF0000" points="202,1301.4877,162,1317.4877,202,1333.4877,186,1317.4877" style="stroke:#FF0000;stroke-width:4.0;"/><line style="stroke:#FF0000;stroke-width:4.0;" x1="178" x2="966" y1="1317.4877" y2="1317.4877"/><text fill="#000000" font-family="sans-serif" font-size="52" lengthAdjust="spacing" textLength="620" x="226" y="1294.2517">401 (if user does not exist)</text><line style="stroke:#181818;stroke-width:4.0;" x1="970" x2="1138" y1="1515.1359" y2="1515.1359"/><line style="stroke:#181818;stroke-width:4.0;" x1="1138" x2="1138" y1="1515.1359" y2="1567.1359"/><line style="stroke:#181818;stroke-width:4.0;" x1="974" x2="1138" y1="1567.1359" y2="1567.1359"/><polygon fill="#181818" points="1014,1551.1359,974,1567.1359,1014,1583.1359,998,1567.1359" style="stroke:#181818;stroke-width:4.0;"/><text fill="#000000" font-family="sans-serif" font-size="52" lengthAdjust="spacing" textLength="380" x="998" y="1421.0758">Verify password</text><text fill="#000000" font-family="sans-serif" font-size="52" lengthAdjust="spacing" textLength="436" x="998" y="1491.8999">with hash from db</text><polygon fill="#FF0000" points="202,1677.9599,162,1693.9599,202,1709.9599,186,1693.9599" style="stroke:#FF0000;stroke-width:4.0;"/><line style="stroke:#FF0000;stroke-width:4.0;" x1="178" x2="966" y1="1693.9599" y2="1693.9599"/><text fill="#000000" font-family="sans-serif" font-size="52" lengthAdjust="spacing" textLength="684" x="226" y="1670.7239">401 (if user password invalid)</text><line style="stroke:#181818;stroke-width:4.0;" x1="970" x2="1138" y1="1891.6081" y2="1891.6081"/><line style="stroke:#181818;stroke-width:4.0;" x1="1138" x2="1138" y1="1891.6081" y2="1943.6081"/><line style="stroke:#181818;stroke-width:4.0;" x1="974" x2="1138" y1="1943.6081" y2="1943.6081"/><polygon fill="#181818" points="1014,1927.6081,974,1943.6081,1014,1959.6081,998,1943.6081" style="stroke:#181818;stroke-width:4.0;"/><text fill="#000000" font-family="sans-serif" font-size="52" lengthAdjust="spacing" textLength="324" x="998" y="1797.548">Generate JWT</text><text fill="#000000" font-family="sans-serif" font-size="52" lengthAdjust="spacing" textLength="352" x="998" y="1868.372">expiring in 24h</text><polygon fill="#008000" points="202,2054.4321,162,2070.4321,202,2086.4321,186,2070.4321" style="stroke:#008000;stroke-width:4.0;"/><line style="stroke:#008000;stroke-width:4.0;" x1="178" x2="966" y1="2070.4321" y2="2070.4321"/><text fill="#000000" font-family="sans-serif" font-size="52" lengthAdjust="spacing" textLength="228" x="226" y="2047.1961">200 {JWT}</text><!--SRC=[VOzDIyD054Ntyoikk6b0sxGM5rqK4WA220ejkh0kfibByY2PYJDJMotzxyuOMpyMxcOkvvrtdsFN42w7LqCiw6L3whrWMHdPjXZSwefL96mkFJAEurW8cJjja9BTv3KPI8jKvBffA7UibKNITI5CH26TN4jBo8uF7sUf42akvaWmm_tTOebH4tPWJwtavXoTj7QhJN4GoH5xa0rxMIyAyTEPeU9vZdI6QJp6W4lqah0Ih5x3GDGBijGRIbO5DfQCo4xBmnSZAAtebnFVqa-aq6GzvK0xjYxwKOiCbs-dmYkrPLUZbhP6QNIBOlslzpZtfsymNvCY4mw-ULok5EqwDgmg3s8ohNjfPOZKbtOInzXxzF01]--></g></svg>