<svg xmlns="http://www.w3.org/2000/svg" xmlns:xlink="http://www.w3.org/1999/xlink" contentStyleType="text/css" height="3924px" preserveAspectRatio="none" style="width:1744px;height:3924px;background:#FFFFFF;" version="1.1" viewBox="0 0 1744 3924" width="1744px" zoomAndPan="magnify"><defs/><g><text fill="#000000" font-family="sans-serif" font-size="56" font-weight="bold" lengthAdjust="spacing" textLength="848" x="420.92" y="99.8637">1.3. Anwendungsfalldiagramm</text><!--cluster Account--><g id="cluster_Account"><rect fill="none" height="1256" rx="10" ry="10" style="stroke:#181818;stroke-width:4.0;" width="892.16" x="710.84" y="188.2717"/><text fill="#000000" font-family="sans-serif" font-size="56" font-weight="bold" lengthAdjust="spacing" textLength="228" x="1042.92" y="256.1354">Account</text></g><!--cluster Buchung--><g id="cluster_Buchung"><rect fill="none" height="2360" rx="10" ry="10" style="stroke:#181818;stroke-width:4.0;" width="1129.84" x="592" y="1540.2717"/><text fill="#000000" font-family="sans-serif" font-size="56" font-weight="bold" lengthAdjust="spacing" textLength="244" x="1034.92" y="1608.1354">Buchung</text></g><g id="elem_UC1"><ellipse cx="1156.9344" cy="412.2586" fill="#F1F1F1" rx="305.5344" ry="70.7069" style="stroke:#181818;stroke-width:2.0;"/><text fill="#000000" font-family="sans-serif" font-size="56" lengthAdjust="spacing" textLength="372" x="958.9344" y="431.1904">Registrierung</text></g><g id="elem_UC2"><ellipse cx="1156.919" cy="984.2875" fill="#F1F1F1" rx="382.079" ry="86.0158" style="stroke:#181818;stroke-width:2.0;"/><text fill="#000000" font-family="sans-serif" font-size="56" lengthAdjust="spacing" textLength="576" x="856.919" y="1003.2193">Anmelde-Seite Sehen</text></g><g id="elem_UC3"><ellipse cx="1156.9166" cy="692.2552" fill="#F1F1F1" rx="249.4766" ry="67.9035" style="stroke:#181818;stroke-width:2.0;"/><text fill="#000000" font-family="sans-serif" font-size="56" lengthAdjust="spacing" textLength="276" x="1006.9166" y="711.187">Anmelden</text></g><g id="elem_UC8"><ellipse cx="1156.9041" cy="1296.2765" fill="#F1F1F1" rx="375.6241" ry="84.7248" style="stroke:#181818;stroke-width:2.0;"/><text fill="#000000" font-family="sans-serif" font-size="56" lengthAdjust="spacing" textLength="560" x="864.9041" y="1315.2083">Mitglieder verwalten</text></g><g id="elem_UC4"><ellipse cx="1156.9354" cy="3448.2907" fill="#F1F1F1" rx="355.0954" ry="80.6191" style="stroke:#181818;stroke-width:2.0;"/><text fill="#000000" font-family="sans-serif" font-size="56" lengthAdjust="spacing" textLength="508" x="890.9354" y="3467.2226">Buchung anfragen</text></g><g id="elem_UC5"><ellipse cx="1156.9396" cy="3140.2836" fill="#F1F1F1" rx="380.4596" ry="85.6919" style="stroke:#181818;stroke-width:2.0;"/><text fill="#000000" font-family="sans-serif" font-size="56" lengthAdjust="spacing" textLength="572" x="858.9396" y="3159.2155">Buchung überprüfen</text></g><g id="elem_UC6"><ellipse cx="1156.9237" cy="3752.2804" fill="#F1F1F1" rx="367.6437" ry="83.1287" style="stroke:#181818;stroke-width:2.0;"/><text fill="#000000" font-family="sans-serif" font-size="56" lengthAdjust="spacing" textLength="540" x="874.9237" y="3771.2123">Buchung stornieren</text></g><g id="elem_UC7"><ellipse cx="1156.914" cy="1800.2545" fill="#F1F1F1" rx="500.914" ry="109.7828" style="stroke:#181818;stroke-width:2.0;"/><text fill="#000000" font-family="sans-serif" font-size="56" lengthAdjust="spacing" textLength="852" x="725.7037" y="1816.4416">Buchung akzeptieren/ablehnen</text></g><g id="elem_UC9"><ellipse cx="1156.9343" cy="2132.2585" fill="#F1F1F1" rx="361.3343" ry="81.8669" style="stroke:#181818;stroke-width:2.0;"/><text fill="#000000" font-family="sans-serif" font-size="56" lengthAdjust="spacing" textLength="524" x="882.9343" y="2151.1904">Buchung verwalten</text></g><g id="elem_UC10"><ellipse cx="1156.9006" cy="2808.2838" fill="#F1F1F1" rx="491.8606" ry="107.9721" style="stroke:#181818;stroke-width:2.0;"/><text fill="#000000" font-family="sans-serif" font-size="56" lengthAdjust="spacing" textLength="832" x="733.9259" y="2825.2306">Buchungsmöglichkeiten sehen</text></g><g id="elem_UC11"><ellipse cx="1156.9291" cy="2456.2815" fill="#F1F1F1" rx="470.4491" ry="103.6898" style="stroke:#181818;stroke-width:2.0;"/><text fill="#000000" font-family="sans-serif" font-size="56" lengthAdjust="spacing" textLength="784" x="753.4342" y="2475.025">Grund für Buchung angeben</text></g><!--entity b--><g id="elem_b"><ellipse cx="220" cy="529.9917" fill="#F1F1F1" rx="32" ry="32" style="stroke:#181818;stroke-width:2.0;"/><path d="M220,561.9917 L220,669.9917 M168,593.9917 L272,593.9917 M220,669.9917 L168,729.9917 M220,669.9917 L272,729.9917 " fill="none" style="stroke:#181818;stroke-width:2.0;"/><text fill="#000000" font-family="sans-serif" font-size="56" lengthAdjust="spacing" textLength="252" x="62" y="795.8554">Besucher</text><text fill="#000000" font-family="sans-serif" font-size="56" lengthAdjust="spacing" textLength="316" x="62" y="872.1271">John Johnes</text></g><!--entity m--><g id="elem_m"><ellipse cx="220" cy="2977.9917" fill="#F1F1F1" rx="32" ry="32" style="stroke:#181818;stroke-width:2.0;"/><path d="M220,3009.9917 L220,3117.9917 M168,3041.9917 L272,3041.9917 M220,3117.9917 L168,3177.9917 M220,3117.9917 L272,3177.9917 " fill="none" style="stroke:#181818;stroke-width:2.0;"/><text fill="#000000" font-family="sans-serif" font-size="56" lengthAdjust="spacing" textLength="224" x="64" y="3243.8554">Mitglied</text><text fill="#000000" font-family="sans-serif" font-size="56" lengthAdjust="spacing" textLength="312" x="64" y="3320.1271">Jane Johnes</text></g><!--entity a--><g id="elem_a"><ellipse cx="220" cy="1637.9917" fill="#F1F1F1" rx="32" ry="32" style="stroke:#181818;stroke-width:2.0;"/><path d="M220,1669.9917 L220,1777.9917 M168,1701.9917 L272,1701.9917 M220,1777.9917 L168,1837.9917 M220,1777.9917 L272,1837.9917 " fill="none" style="stroke:#181818;stroke-width:2.0;"/><text fill="#000000" font-family="sans-serif" font-size="56" lengthAdjust="spacing" textLength="372" x="24" y="1903.8554">Administrator</text><text fill="#000000" font-family="sans-serif" font-size="56" lengthAdjust="spacing" textLength="392" x="24" y="1980.1271">Batuhan Avsar</text></g><!--link b to UC1--><g id="link_b_UC1"><path d="M379.52,623.7917 C435.72,600.5117 500.08,575.5517 560,556.2717 C678.48,518.1517 789.7087,489.9548 900.6687,464.9148 " fill="none" id="b-to-UC1" style="stroke:#181818;stroke-width:4.0;"/><polygon fill="#181818" points="924.08,459.6317,885.441,451.9489,904.5706,464.0343,892.4852,483.1639,924.08,459.6317" style="stroke:#181818;stroke-width:4.0;"/></g><!--link b to UC2--><g id="link_b_UC2"><path d="M379.72,760.1117 C435.96,783.3117 500.28,808.4317 560,828.2717 C665.56,863.3517 760.4575,889.8879 863.3775,916.0079 " fill="none" id="b-to-UC2" style="stroke:#181818;stroke-width:4.0;"/><polygon fill="#181818" points="886.64,921.9117,855.6821,897.5476,867.2546,916.9918,847.8103,928.5643,886.64,921.9117" style="stroke:#181818;stroke-width:4.0;"/></g><!--link b to UC3--><g id="link_b_UC3"><path d="M379.48,692.2717 C523.08,692.2717 714.76,692.2717 881.88,692.2717 " fill="none" id="b-to-UC3" style="stroke:#181818;stroke-width:4.0;"/><polygon fill="#181818" points="905.88,692.2717,869.88,676.2717,885.88,692.2717,869.88,708.2717,905.88,692.2717" style="stroke:#181818;stroke-width:4.0;"/></g><!--link a to UC8--><g id="link_a_UC8"><path d="M417.6,1695.2317 C593.08,1600.0317 826.7046,1473.2765 985.6646,1387.0365 " fill="none" id="a-to-UC8" style="stroke:#181818;stroke-width:4.0;"/><polygon fill="#181818" points="1006.76,1375.5917,967.487,1378.6953,989.1805,1385.129,982.7468,1406.8225,1006.76,1375.5917" style="stroke:#181818;stroke-width:4.0;"/></g><!--link m to UC4--><g id="link_m_UC4"><path d="M377.08,3218.5917 C433.6,3245.5517 498.84,3274.4317 560,3296.2717 C667.6,3334.6717 766.0278,3362.0096 871.1078,3387.3296 " fill="none" id="m-to-UC4" style="stroke:#181818;stroke-width:4.0;"/><polygon fill="#181818" points="894.44,3392.9517,863.1898,3368.9637,874.9965,3388.2666,855.6936,3400.0733,894.44,3392.9517" style="stroke:#181818;stroke-width:4.0;"/></g><!--link m to UC5--><g id="link_m_UC5"><path d="M377.4,3140.2717 C485.6,3140.2717 611.52,3140.2717 750.72,3140.2717 " fill="none" id="m-to-UC5" style="stroke:#181818;stroke-width:4.0;"/><polygon fill="#181818" points="774.72,3140.2717,738.72,3124.2717,754.72,3140.2717,738.72,3156.2717,774.72,3140.2717" style="stroke:#181818;stroke-width:4.0;"/></g><!--link m to UC6--><g id="link_m_UC6"><path d="M325.96,3337.7917 C383.12,3430.2317 462.56,3534.2717 560,3600.2717 C640.48,3654.7917 715.8591,3684.2058 809.4591,3706.6058 " fill="none" id="m-to-UC6" style="stroke:#181818;stroke-width:4.0;"/><polygon fill="#181818" points="832.8,3712.1917,801.5125,3688.2523,813.3492,3707.5368,794.0647,3719.3735,832.8,3712.1917" style="stroke:#181818;stroke-width:4.0;"/></g><!--link a to UC7--><g id="link_a_UC7"><path d="M417.6,1800.2717 C487.8,1800.2717 546.64,1800.2717 631,1800.2717 " fill="none" id="a-to-UC7" style="stroke:#181818;stroke-width:4.0;"/><polygon fill="#181818" points="655,1800.2717,619,1784.2717,635,1800.2717,619,1816.2717,655,1800.2717" style="stroke:#181818;stroke-width:4.0;"/></g><!--link a to UC9--><g id="link_a_UC9"><path d="M417.44,1914.0717 C463.2,1938.1117 512.52,1961.7917 560,1980.2717 C663,2020.3917 756.8169,2047.4148 859.6169,2071.9748 " fill="none" id="a-to-UC9" style="stroke:#181818;stroke-width:4.0;"/><polygon fill="#181818" points="882.96,2077.5517,851.6634,2053.6243,863.5075,2072.9043,844.2275,2084.7484,882.96,2077.5517" style="stroke:#181818;stroke-width:4.0;"/></g><!--link m to UC10--><g id="link_m_UC10"><path d="M377.56,3063.2317 C434.12,3036.3917 499.24,3007.2717 560,2984.2717 C649.4,2950.4717 725.2576,2925.6519 816.2576,2898.8519 " fill="none" id="m-to-UC10" style="stroke:#181818;stroke-width:4.0;"/><polygon fill="#181818" points="839.28,2892.0717,800.2263,2886.8937,820.0947,2897.7218,809.2666,2917.5902,839.28,2892.0717" style="stroke:#181818;stroke-width:4.0;"/></g><!--link m to UC11--><g id="link_m_UC11"><path d="M312.44,2942.9117 C369.2,2836.8717 452.52,2711.8717 560,2632.2717 C626.88,2582.7517 684.7474,2554.4037 764.7874,2528.7237 " fill="none" id="m-to-UC11" style="stroke:#181818;stroke-width:4.0;"/><polygon fill="#181818" points="787.64,2521.3917,748.4731,2517.1546,768.5962,2527.5017,758.2491,2547.6248,787.64,2521.3917" style="stroke:#181818;stroke-width:4.0;"/></g><!--SRC=[RP6_ReCm4CPtFyM9FMd8tsQfH3fKgjIbKRSi1np62XoHRHAfLL-hKpPUh0O5XrOircVkT_Y-xwoo1K4GJXTJYFX2dDOiJOP5aIgK6iio40Lb5cm5MidSGgeq9LPLB4o2hZUSpMO24rjf27PawYGdVU3NAcTe3p81e86uHzwKbOMYr278D4JA7edIKh4oLgEx7dY7jiwH8JeRr1s9GhGp84ltVfGaLSqMlWH0RIX1u_oyasn_e4WxErtFntCu128kgKXfiYTb2VQK4z-m-GZMrnR3Mk-4D9n9Nx2mddiKtyCHTouKDyVV4VkFo9b6wLkNOqnpZKcVT7FDFBSQuumBZ9rfJwr7Npn-qibss0F61RaDzFncZF_lRZi2cRBvSMaa-R4DbC4C4WrdmuONjv8KikQguHw1fFYEXsrwCKmcJztMUZNtQY7mfXw5A6zowTNAgxK7DrvjVTNDvMNu2m00]--></g></svg>